# xmcd
#
# Track frame offsets:
#	150
#	10644
#	20276
#	29752
#	39316
#	50504
#	61777
#	71312
#	83848
#	95140
#	104809
#	113838
#	123704
#	136301
#	144924
#	156320
#	168766
#	179224
#	191344
#	202447
#
# Disc length: 2868 seconds
#
# Revision: 0
# Processed by: cddbd v1.5.2PL0 Copyright (c) Steve Scherf et al.
# Submitted via: FairStars CD Ripper 1.80
#
DISCID=1f0b3214
DTITLE=Lloyd Price - Singles Collection cd3
DYEAR=2015
DGENRE=Soul
TTITLE0=I'm Gonna Get Married
TTITLE1=Georgianna
TTITLE2=Forgive Me, Clawdy
TTITLE3=Have You Ever Had The Blues
TTITLE4=Never Let Me Go
TTITLE5=Baby, Don't Turn Your Back On Me
TTITLE6=Who Coulda' Told You (They Lied)
TTITLE7=Pop Eye's Irresistable You (Instr.)
TTITLE8=One Hundred Percent
TTITLE9=Mailman Blues
TTITLE10=I Ain't Givin' Up Nothin'
TTITLE11=Why
TTITLE12=You Need Love
TTITLE13=Is It Really Love?
TTITLE14=No Limit To Love
TTITLE15=That's Why Tears Come And Go
TTITLE16=No If's - No And's
TTITLE17=Happy Birthday, Mama
TTITLE18=Be A Leader
TTITLE19=String Of Pearls (Instr.)
EXTD=
EXTT0=
EXTT1=
EXTT2=
EXTT3=
EXTT4=
EXTT5=
EXTT6=
EXTT7=
EXTT8=
EXTT9=
EXTT10=
EXTT11=
EXTT12=
EXTT13=
EXTT14=
EXTT15=
EXTT16=
EXTT17=
EXTT18=
EXTT19=
PLAYORDER=
